<?xml version="1.0" standalone="no"?>
<!DOCTYPE svg PUBLIC "-//W3C//DTD SVG 1.1//EN" "http://www.w3.org/Graphics/SVG/1.1/DTD/svg11.dtd" >
<svg xmlns="http://www.w3.org/2000/svg">
<metadata>
This is a custom SVG webfont generated by Font Squirrel.
Copyright   : Copyright c 2011 Pablo Impallari wwwimpallaricomimpallarigmailcomCopyright c 2011 Igino Marini wwwikerncommailiginomarinicomCopyright c 2011 Brenda Gallo gbrenda1987gmailcomwith Reserved Font Name Quattrocento Sans
Designer    : Pablo Impallari
Foundry     : Pablo Impallari Igino Marini Brenda Gallo
Foundry URL : wwwimpallaricom
</metadata>
<defs>
<font id="QuattrocentoSansBold" horiz-adv-x="1327" >
<font-face units-per-em="2048" ascent="1638" descent="-410" />
<missing-glyph horiz-adv-x="495" />
<glyph unicode=" "  horiz-adv-x="495" />
<glyph unicode="&#x09;" horiz-adv-x="495" />
<glyph unicode="&#xa0;" horiz-adv-x="495" />
<glyph unicode="!" horiz-adv-x="499" d="M152 121q0 57 43 99t102 42t104 -43t45 -100.5t-46 -100.5t-105 -43q-57 0 -100 43.5t-43 102.5zM162 1397h280l-53 -1028h-178z" />
<glyph unicode="&#x22;" horiz-adv-x="647" d="M102 1499h248l-49 -442h-156zM424 1499h248l-49 -442h-156z" />
<glyph unicode="#" horiz-adv-x="1261" d="M80 424l35 170h198l39 182h-209l33 168h213l84 395h213l-84 -395h176l84 395h213l-84 -395h207l-33 -168h-211l-39 -182h222l-35 -170h-221l-90 -424h-213l90 424h-176l-91 -424h-213l91 424h-199zM526 594h176l39 182h-176z" />
<glyph unicode="$" horiz-adv-x="1083" d="M88 88l59 211q143 -113 328 -127v428q-57 20 -97 36.5t-92.5 50.5t-84 74t-54 103.5t-22.5 143.5q0 322 350 350v178h164v-180q162 -14 289 -72l-56 -217q-94 61 -233 90v-356q78 -31 134 -61.5t112.5 -81t85 -123t28.5 -164.5q0 -174 -99 -269.5t-261 -117.5v-181h-164 v174q-215 13 -387 111zM342 1024q0 -100 133 -160v297q-133 -22 -133 -137zM639 186q135 37 135 160q0 115 -135 189v-349z" />
<glyph unicode="%" horiz-adv-x="1615" d="M90 977q0 166 82 275.5t219 109.5t219 -109.5t82 -267.5t-83 -270.5t-226 -112.5q-139 0 -216 107.5t-77 267.5zM213 37l969 1339h235l-968 -1339h-236zM274 989q0 -115 30 -176t81 -61q61 0 93 64.5t32 164.5q0 102 -33 166.5t-90 64.5q-113 0 -113 -223zM930 350 q0 166 82 275.5t219 109.5t219 -109.5t82 -267t-83 -270.5t-226 -113q-139 0 -216 107.5t-77 267.5zM1114 362q0 -115 30 -176t81 -61q61 0 93 64.5t32 164.5q0 102 -33 167t-90 65q-113 -1 -113 -224z" />
<glyph unicode="&#x26;" horiz-adv-x="1425" d="M102 360q0 119 72 230.5t203 167.5q-125 143 -125 299q0 145 86 225t217 80q147 0 293 -90l-57 -197q-41 35 -105.5 65.5t-114.5 30.5q-51 0 -83.5 -34.5t-32.5 -96.5q0 -59 30.5 -109t96.5 -116l352 -364q4 29 4 47q0 111 -70 211l-100 -7v127l594 76v-157l-295 -23 q66 -115 66 -244q0 -100 -41 -194l278 -287h-254l-129 133q-158 -158 -416 -158q-219 0 -344 112.5t-125 272.5zM340 389q0 -106 68.5 -161.5t181.5 -55.5q162 0 258 102l-348 355q-76 -20 -118 -89t-42 -151z" />
<glyph unicode="'" horiz-adv-x="366" d="M102 1499h248l-49 -442h-156z" />
<glyph unicode="(" horiz-adv-x="608" d="M86 670q0 258 108.5 493.5t305.5 415.5l139 -51q-158 -184 -229.5 -388t-71.5 -472q0 -494 299 -856l-137 -52q-197 176 -305.5 413t-108.5 497z" />
<glyph unicode=")" horiz-adv-x="608" d="M31 1528l139 51q197 -180 305.5 -415.5t108.5 -493.5q0 -260 -108.5 -496.5t-305.5 -413.5l-137 52q299 362 299 856q0 268 -71.5 472t-229.5 388z" />
<glyph unicode="*" horiz-adv-x="899" d="M131 1024l244 78l-244 78l107 182l188 -178l-55 254h209l-56 -254l189 178l106 -182l-246 -78l246 -78l-106 -182l-191 176l58 -252h-209l55 252l-188 -176z" />
<glyph unicode="+" horiz-adv-x="1017" d="M104 406v167h310v301h188v-301h311v-167h-311v-322h-188v322h-310z" />
<glyph unicode="," horiz-adv-x="448" d="M117 -145l90 145h-62v205h244v-225l-201 -154z" />
<glyph unicode="-" horiz-adv-x="966" d="M137 406v167h692v-167h-692z" />
<glyph unicode="." horiz-adv-x="440" d="M125 121q0 57 43 103t102 46q57 0 103.5 -46t46.5 -103q0 -59 -46 -102.5t-104 -43.5q-59 0 -102 43.5t-43 102.5z" />
<glyph unicode="/" horiz-adv-x="876" d="M78 -117l569 1555h236l-570 -1555h-235z" />
<glyph unicode="0" horiz-adv-x="1329" d="M121 659q0 301 147.5 502t397.5 201q252 0 398 -199.5t146 -486.5q0 -186 -62.5 -343t-192.5 -257.5t-304 -100.5q-252 0 -391 196.5t-139 487.5zM373 674q0 -246 74.5 -374t211.5 -128q150 0 226 138.5t76 363.5t-77 358t-227 133q-145 0 -214.5 -131t-69.5 -360z" />
<glyph unicode="1" horiz-adv-x="649" d="M51 1126l447 226v-1352h-236v995l-166 -73z" />
<glyph unicode="2" horiz-adv-x="1044" d="M98 0v205q63 88 178 212t197 211t145.5 192.5t63.5 189.5q0 162 -207 161q-162 0 -323 -92l-48 176q82 45 197 76t215 31q174 0 285.5 -92t111.5 -244q0 -80 -31.5 -163t-95 -173t-120 -157.5t-148.5 -171t-137 -156.5h547v-205h-830z" />
<glyph unicode="3" horiz-adv-x="1093" d="M74 115l57 186q160 -129 348 -129q129 0 195.5 61.5t66.5 176.5q0 225 -262 225h-55v178h63q88 0 138.5 57.5t50.5 151.5q0 78 -48 115t-126 37t-161 -32t-132 -77l-53 188q174 109 381 109q172 0 281.5 -93t109.5 -241q0 -184 -195 -293q260 -88 260 -338 q0 -182 -130 -302t-371 -120q-254 1 -418 140z" />
<glyph unicode="4" horiz-adv-x="1038" d="M61 389v184l572 779h246v-779h141v-184h-141v-389h-236v389h-582zM293 573h350v496z" />
<glyph unicode="5" horiz-adv-x="1101" d="M96 113l60 194q61 -57 157.5 -94t188.5 -37q115 0 188.5 59.5t73.5 182.5q0 106 -57.5 163.5t-194.5 57.5q-150 0 -283 -51l-59 30l80 744h694v-215h-504l-30 -324q78 23 176 23q190 0 309 -110.5t119 -303.5q0 -199 -130 -328t-372 -129q-250 1 -416 138z" />
<glyph unicode="6" horiz-adv-x="1128" d="M127 614q0 150 24.5 276t80 235.5t158 172t241.5 62.5q229 0 336 -107l-52 -180q-123 92 -276 92q-82 0 -142.5 -36.5t-92 -101t-46 -135.5t-14.5 -153q0 -39 2 -59l6 -2q66 143 279 143q111 0 191.5 -42t122.5 -108.5t60.5 -134t18.5 -135.5q0 -78 -24.5 -149.5 t-73.5 -135t-137.5 -102.5t-202.5 -39q-459 0 -459 639zM389 395q0 -106 53.5 -169.5t145.5 -63.5t143 65.5t51 182.5q0 225 -184 225q-100 0 -154.5 -65.5t-54.5 -174.5z" />
<glyph unicode="7" horiz-adv-x="931" d="M82 1147v215h829v-215q-180 -197 -334.5 -526.5t-154.5 -538.5q0 -57 2 -82h-260q-2 25 -2 80q0 223 159.5 529t356.5 538h-596z" />
<glyph unicode="8" horiz-adv-x="1140" d="M117 381q0 135 65.5 229.5t182.5 128.5v9q-78 29 -129.5 104.5t-51.5 181.5q0 147 102.5 237.5t282.5 90.5q178 0 281.5 -87t103.5 -235q0 -102 -50 -179t-130 -111v-9q117 -27 182.5 -122t65.5 -234q0 -180 -114.5 -295t-340.5 -115q-229 0 -339.5 116t-110.5 290z M348 379q0 -106 59.5 -165.5t160 -59.5t159.5 59t59 165.5t-56 184.5t-163 78q-109 0 -164 -79t-55 -183zM410 1010q0 -84 43 -134.5t114.5 -50.5t114.5 49.5t43 133.5q0 80 -41 126t-116.5 46t-116.5 -44t-41 -126z" />
<glyph unicode="9" horiz-adv-x="1128" d="M104 934q0 78 25 149.5t74 135t137 102.5t203 39q459 0 458 -639q0 -150 -24.5 -276t-79.5 -235.5t-157.5 -172t-241.5 -62.5q-229 0 -336 107l51 180q123 -92 276 -92q82 0 142.5 37t92.5 101.5t46 135t14 152.5q0 39 -2 59l-6 2q-66 -143 -278 -143q-111 0 -192 42 t-123 108.5t-60.5 134t-18.5 135.5zM346 926q0 -225 184 -226q100 0 154.5 65.5t54.5 174.5q0 106 -53 170t-145 64t-143.5 -65.5t-51.5 -182.5z" />
<glyph unicode=":" horiz-adv-x="466" d="M137 121q0 57 43 103t103 46q57 0 103 -46t46 -103q0 -59 -46 -102.5t-103 -43.5q-59 0 -102.5 43.5t-43.5 102.5zM137 782q0 57 43 103.5t103 46.5q57 0 103 -46t46 -104q0 -59 -46 -102t-103 -43q-59 0 -102.5 43t-43.5 102z" />
<glyph unicode=";" horiz-adv-x="487" d="M135 -145l90 145h-61v205h244v-225l-201 -154zM141 782q0 57 43 103.5t103 46.5q57 0 103 -46t46 -104q0 -59 -46 -102t-103 -43q-59 0 -102.5 43t-43.5 102z" />
<glyph unicode="&#x3c;" horiz-adv-x="845" d="M84 426v133l584 397l37 -190l-404 -268v-11l406 -272l-37 -192z" />
<glyph unicode="=" horiz-adv-x="1007" d="M158 250v168h692v-168h-692zM158 561v168h692v-168h-692z" />
<glyph unicode="&#x3e;" horiz-adv-x="845" d="M139 215l406 272v11l-404 268l37 190l584 -397v-133l-586 -403z" />
<glyph unicode="?" horiz-adv-x="854" d="M86 1298q141 106 320 107q150 0 248 -92t98 -232q0 -80 -40 -165t-88.5 -150.5t-89 -171t-40.5 -223.5h-213q0 127 38.5 237.5t85 174t85 138t38.5 136.5q0 76 -46 111.5t-113 35.5q-63 0 -128 -28.5t-102 -73.5zM246 121q0 57 43 99t102.5 42t104.5 -43t45 -100.5 t-46 -100.5t-106 -43q-57 0 -100 43.5t-43 102.5z" />
<glyph unicode="@" horiz-adv-x="1476" d="M113 369q0 123 44 249.5t127 242.5t226 188.5t321 72.5q270 0 415 -151.5t145 -349.5q0 -188 -122 -328.5t-288 -140.5q-158 0 -158 149q-33 -68 -93 -109.5t-114 -41.5q-68 0 -122 66.5t-54 178.5q0 174 122 288t265 114q61 0 126 -20.5t94 -59.5l-64 -291 q-8 -35 -8 -80q0 -49 41 -49q70 0 119 96t49 213q0 147 -88 253t-267 106q-233 0 -369 -182.5t-136 -413.5q0 -209 115.5 -312.5t299.5 -103.5q141 0 258 52t183 112v-164q-53 -51 -186.5 -105.5t-282.5 -54.5q-250 0 -424 160t-174 416zM641 391q0 -84 45 -84q39 0 84 59.5 t57 141.5l25 147q-18 8 -41 9q-74 0 -122 -90.5t-48 -182.5z" />
<glyph unicode="A" d="M16 0l525 1352h202l578 -1352h-256l-154 393h-510l-139 -393h-246zM467 578h371l-195 497z" />
<glyph unicode="B" horiz-adv-x="1144" d="M201 0v1352q154 10 329 10q217 0 333 -90t116 -262t-139 -262q262 -88 262 -353q0 -180 -131 -300t-373 -120q-204 0 -397 25zM436 176q49 -4 156 -4q125 0 194.5 61.5t69.5 178.5q0 225 -268 225q-57 0 -152 -4v-457zM436 809q33 -2 103 -2q88 0 140 60.5t52 158.5 q0 63 -43 103t-119 40q-72 0 -133 -10v-350z" />
<glyph unicode="C" horiz-adv-x="1314" d="M117 662q0 305 177 502.5t499 197.5q236 0 411 -88l-59 -213q-145 100 -365 100q-213 0 -313 -128t-100 -355q0 -246 105.5 -374t303.5 -128q236 0 391 127l62 -203q-207 -125 -459 -125q-215 0 -365.5 96.5t-219 248.5t-68.5 342z" />
<glyph unicode="D" horiz-adv-x="1441" d="M203 0v1352q123 10 418 10q362 0 538 -154q207 -180 207 -561q0 -115 -20.5 -208t-73.5 -181t-139 -148.5t-226.5 -96.5t-324.5 -36q-180 0 -379 23zM438 180q100 -8 201 -8q250 0 362.5 119t112.5 387q0 252 -110.5 369.5t-387.5 117.5q-106 0 -178 -2v-983z" />
<glyph unicode="E" horiz-adv-x="1079" d="M203 0v1352h782v-205h-547v-328h410v-205h-410v-409h588v-205h-823z" />
<glyph unicode="F" horiz-adv-x="995" d="M203 0v1352h772v-205h-537v-328h387v-205h-387v-614h-235z" />
<glyph unicode="G" horiz-adv-x="1376" d="M117 662q0 305 177 502.5t503 197.5q236 0 428 -88l-66 -213q-174 100 -371 100q-223 0 -322 -125t-99 -360q0 -500 424 -500q82 0 217 41v340h235v-444q-203 -137 -471 -138q-217 0 -368.5 96.5t-219 248.5t-67.5 342z" />
<glyph unicode="H" horiz-adv-x="1441" d="M203 0v1352h235v-553h647v553h236v-1352h-236v594h-647v-594h-235z" />
<glyph unicode="I" horiz-adv-x="559" d="M203 0v1352h235v-1352h-235z" />
<glyph unicode="J" horiz-adv-x="561" d="M-27 -141q68 0 113 30.5t63.5 88t24.5 107.5t6 124v1143h236v-1145q0 -229 -101.5 -377.5t-296.5 -148.5z" />
<glyph unicode="K" horiz-adv-x="1218" d="M203 0v1352h235v-590q117 111 209 215q176 199 277 375h258q-166 -227 -353 -439q-98 -111 -155 -170l604 -743h-272l-482 592l-86 -80v-512h-235z" />
<glyph unicode="L" horiz-adv-x="997" d="M203 0v1352h235v-1147h563v-205h-798z" />
<glyph unicode="M" horiz-adv-x="1726" d="M203 0v1352h268l461 -1033l448 1033h269v-1352h-234v891l-389 -891h-188l-400 891v-891h-235z" />
<glyph unicode="N" horiz-adv-x="1441" d="M203 0v1352h289l593 -994v994h236v-1352h-289l-594 991v-991h-235z" />
<glyph unicode="O" horiz-adv-x="1548" d="M115 659q0 303 176 503t483 200t483.5 -198.5t176.5 -489.5q0 -137 -43 -261t-125 -222.5t-213 -157t-293 -58.5q-209 0 -358.5 96.5t-218 248t-68.5 339.5zM367 680q0 -248 102 -376t295 -128q213 0 316.5 135t103.5 357q0 229 -103.5 361t-312.5 132t-305 -128 t-96 -353z" />
<glyph unicode="P" horiz-adv-x="1071" d="M203 0v1352q137 10 325 10q236 0 374 -112.5t138 -321.5q0 -182 -119.5 -301t-349.5 -119q-92 0 -133 2v-510h-235zM438 707q39 -2 127 -2q223 0 223 239q0 221 -227 221q-84 0 -123 -2v-456z" />
<glyph unicode="Q" horiz-adv-x="1552" d="M117 659q0 303 176 503t483 200t483.5 -198.5t176.5 -489.5q0 -180 -69 -332t-216 -254t-350 -111q88 -10 267 -79.5t290 -69.5q94 0 198 41l-53 -201q-66 -25 -143 -24q-117 0 -320.5 87t-302.5 87q-137 0 -243 -80l-41 147q104 82 243 92q-279 20 -429 213t-150 469z M369 674q0 -244 103 -371t298 -127q211 0 313.5 137.5t102.5 360.5q0 225 -104.5 356t-313.5 131q-399 0 -399 -487z" />
<glyph unicode="R" horiz-adv-x="1202" d="M203 0v1352q143 10 301 10q260 0 398 -100.5t138 -288.5q0 -274 -258 -361l496 -612h-272l-471 578q-61 0 -97 2v-580h-235zM438 774h127q111 0 168.5 55.5t57.5 157.5q0 94 -58.5 136t-208.5 42q-53 0 -86 -2v-389z" />
<glyph unicode="S" horiz-adv-x="1132" d="M102 88l62 221q180 -137 391 -137q250 0 250 170q0 55 -26.5 99t-77 75t-85 46.5t-88.5 31.5q-68 23 -107.5 38t-100 51t-94 75t-59.5 104.5t-26 145.5q0 186 118 270t316 84q225 0 396 -78l-56 -217q-70 47 -167 73.5t-181 26.5q-199 0 -198 -141q0 -33 13 -60.5 t32.5 -46t59.5 -39t69.5 -31.5t89.5 -32q90 -31 149.5 -61.5t126 -80.5t100 -127t33.5 -177q0 -141 -70.5 -232.5t-175 -127.5t-239.5 -36q-252 0 -455 113z" />
<glyph unicode="T" horiz-adv-x="1095" d="M39 1147v205h1018v-205h-391v-1147h-236v1147h-391z" />
<glyph unicode="U" horiz-adv-x="1404" d="M186 475v877h236v-828q0 -348 326 -348q328 0 327 348v828h225v-877q0 -217 -142 -357.5t-423 -140.5q-279 0 -414 139.5t-135 358.5z" />
<glyph unicode="V" d="M-10 1352h256l430 -1065l389 1065h246l-541 -1352h-186z" />
<glyph unicode="W" horiz-adv-x="2217" d="M0 1352h256l346 -1049l348 1049h232l346 -1049l346 1049h256l-502 -1352h-194l-369 1028l-367 -1028h-194z" />
<glyph unicode="X" d="M33 0l499 696l-469 656h265l342 -529l338 529h258l-471 -658l497 -694h-264l-371 547l-366 -547h-258z" />
<glyph unicode="Y" horiz-adv-x="1161" d="M-20 1352h264l346 -613l332 613h260l-482 -797v-555h-235v547z" />
<glyph unicode="Z" horiz-adv-x="1138" d="M90 0v205l672 942h-641v205h897v-205l-672 -942h703v-205h-959z" />
<glyph unicode="[" horiz-adv-x="557" d="M168 -195v1729h328v-148h-113v-1433h113v-148h-328z" />
<glyph unicode="\" horiz-adv-x="872" d="M76 1438h231l570 -1555h-232z" />
<glyph unicode="]" horiz-adv-x="557" d="M61 -47h113v1433h-113v148h328v-1729h-328v148z" />
<glyph unicode="^" horiz-adv-x="712" d="M117 1161l6 15l225 202h17l225 -202l6 -15l-33 -59l-14 -6l-193 84l-192 -84l-14 6z" />
<glyph unicode="_" horiz-adv-x="956" d="M35 0h887v-168h-887v168z" />
<glyph unicode="`" horiz-adv-x="448" d="M0 1292q0 39 17.5 73t43.5 34q8 0 21 -6l369 -207l6 -15l-31 -73l-16 -6l-383 141q-27 8 -27 59z" />
<glyph unicode="a" horiz-adv-x="1021" d="M84 248q0 168 138 263t374 95h88v31q0 80 -51 117t-166 37q-152 0 -270 -68l-43 170q137 80 331 80q205 0 312 -84q113 -88 112 -248v-641h-180l-16 129h-8q-55 -70 -150.5 -112t-194.5 -42q-127 0 -201.5 75t-74.5 198zM324 281q0 -123 125 -123q66 0 131 32.5t104 83.5 v187h-39q-168 0 -244.5 -43t-76.5 -137z" />
<glyph unicode="b" horiz-adv-x="1181" d="M162 0v1516h223v-668q102 125 301 125q205 0 314.5 -142.5t109.5 -349.5q0 -219 -120 -362.5t-310 -143.5q-174 0 -313 154h-9l-16 -129h-180zM385 274q45 -57 121 -93t145 -36q113 0 174.5 98.5t61.5 233.5q0 137 -65.5 229.5t-188.5 92.5q-141 0 -248 -131v-394z" />
<glyph unicode="c" horiz-adv-x="1021" d="M98 479q0 213 123 353.5t365 140.5q217 0 344 -82l-49 -182q-47 35 -131 61.5t-158 26.5q-131 0 -191.5 -86t-60.5 -219q0 -145 68.5 -239.5t195.5 -94.5q76 0 159 30.5t136 81.5l41 -192q-158 -102 -369 -103q-227 0 -350 144.5t-123 359.5z" />
<glyph unicode="d" horiz-adv-x="1181" d="M100 481q0 207 109.5 349.5t314.5 142.5q199 0 301 -125v668h224v-1516h-181l-16 129h-8q-139 -154 -314 -154q-190 0 -310 143.5t-120 362.5zM324 477q0 -135 61 -233.5t174 -98.5q70 0 145.5 36t120.5 93v394q-106 131 -247 131q-123 0 -188.5 -92.5t-65.5 -229.5z" />
<glyph unicode="e" horiz-adv-x="1060" d="M96 471q0 213 130 357.5t356 144.5q180 0 278 -91t98 -257q0 -121 -38 -174h-596q8 -131 79.5 -214t198.5 -83q74 0 159 28.5t146 71.5l37 -168q-176 -111 -377 -111q-219 0 -345 143.5t-126 352.5zM342 610h391q4 16 4 35q0 66 -46 109t-116 43q-84 0 -145 -50.5 t-88 -136.5z" />
<glyph unicode="f" horiz-adv-x="612" d="M53 805v117l117 18q0 371 86 485q74 100 254 101q123 0 195 -43l-52 -174q-90 55 -159 55q-53 0 -76 -59.5t-23 -227.5v-135h180v-137h-180v-805h-225v805h-117z" />
<glyph unicode="g" horiz-adv-x="1042" d="M72 -233q0 82 53 154.5t133 98.5v9q-84 35 -84 123q0 96 111 137v8q-88 37 -131 117t-43 182q0 164 105.5 270.5t279.5 106.5q119 0 196 -41q152 2 293 43l19 -14l-23 -156l-10 -10l-146 16l-2 -6q70 -88 70 -207q0 -147 -103.5 -245.5t-283.5 -98.5q-16 0 -35.5 1 t-26.5 1q-72 -25 -71 -72q0 -49 92 -61l199 -25q145 -18 233 -87.5t88 -192.5q0 -139 -117.5 -232.5t-347.5 -93.5q-209 0 -328.5 78t-119.5 197zM272 -209q0 -131 252 -131q264 0 264 143q0 72 -75.5 103t-272.5 49q-70 -12 -119 -58.5t-49 -105.5zM324 610q0 -80 47 -139 t133 -59q80 0 125 53t45 133q0 82 -46 147.5t-132 65.5q-82 0 -127 -60.5t-45 -140.5z" />
<glyph unicode="h" horiz-adv-x="1116" d="M162 0v1516h225v-713q109 170 315 170q139 0 227.5 -79t88.5 -253v-641h-225v623q0 82 -37 125t-101 43q-84 0 -162.5 -51.5t-105.5 -135.5v-604h-225z" />
<glyph unicode="i" horiz-adv-x="466" d="M131 1245q0 57 43 103.5t102 46.5q57 0 103.5 -46t46.5 -104q0 -59 -46 -102t-104 -43q-59 0 -102 43t-43 102zM164 0v942h225v-942h-225z" />
<glyph unicode="j" horiz-adv-x="466" d="M-86 -385q12 -6 43 -6q57 0 96 36t54.5 101.5t20.5 120.5t5 129v946h225v-948q0 -221 -95 -371.5t-263 -150.5q-37 0 -49 6zM100 1245q0 57 43 103.5t103 46.5q57 0 103 -46t46 -106q0 -57 -46 -100t-105 -43q-57 0 -100.5 43t-43.5 102z" />
<glyph unicode="k" horiz-adv-x="974" d="M162 0v1516h225v-875l313 301h252l-336 -332l402 -610h-246l-305 463l-80 -80v-383h-225z" />
<glyph unicode="l" horiz-adv-x="491" d="M174 0v1516h225v-1516h-225z" />
<glyph unicode="m" horiz-adv-x="1761" d="M162 0v942h176l10 -139h8q39 82 127 126t193 44q223 0 293 -168q41 82 127 125t190 43q143 0 232.5 -79t89.5 -253v-641h-226v623q0 168 -133 168q-72 0 -149.5 -51.5t-102.5 -135.5v-604h-225v623q0 168 -133 168q-72 0 -149.5 -51.5t-102.5 -135.5v-604h-225z" />
<glyph unicode="n" horiz-adv-x="1116" d="M162 0v942h176l10 -139h8q41 82 131.5 126t198.5 44q147 0 239.5 -79t92.5 -253v-641h-225v623q0 168 -144 168q-76 0 -155.5 -51.5t-106.5 -135.5v-604h-225z" />
<glyph unicode="o" horiz-adv-x="1148" d="M98 475q0 213 122 355.5t353 142.5q236 0 357 -145.5t121 -362.5q0 -213 -120 -351.5t-351 -138.5q-236 0 -359 142.5t-123 357.5zM340 481q0 -141 60.5 -238.5t177.5 -97.5q115 0 173 90.5t58 227.5q0 141 -61.5 237.5t-180.5 96.5q-113 0 -170 -89.5t-57 -226.5z" />
<glyph unicode="p" horiz-adv-x="1181" d="M162 -532v1474h180l16 -129h9q53 68 144 114t175 46q209 0 316.5 -144.5t107.5 -359.5t-109.5 -354.5t-318.5 -139.5q-205 0 -297 113v-620h-223zM385 268q94 -115 244 -114q127 0 192.5 87t65.5 224t-60.5 236.5t-177.5 99.5q-63 0 -141 -38t-123 -95v-400z" />
<glyph unicode="q" horiz-adv-x="1181" d="M100 469q0 215 107.5 359.5t316.5 144.5q84 0 175.5 -46t144.5 -114h8l16 129h181v-1474h-224v620q-92 -113 -297 -113q-209 0 -318.5 139.5t-109.5 354.5zM324 465q0 -137 65.5 -226t192.5 -89q137 0 243 118v400q-45 57 -122.5 95t-141.5 38q-117 0 -177 -99.5 t-60 -236.5z" />
<glyph unicode="r" horiz-adv-x="737" d="M162 0v942h176l10 -197h8q29 57 45.5 86t48 69t69.5 56.5t87 16.5q82 0 154 -53l-60 -183q-47 37 -137 37q-39 0 -66.5 -17.5t-49 -55t-33 -67.5t-27.5 -87v-547h-225z" />
<glyph unicode="s" horiz-adv-x="907" d="M98 78l54 194q66 -63 152.5 -98t164.5 -35q76 0 118 34t42 93q0 37 -21.5 60.5t-81.5 38.5l-196 49q-227 55 -228 272q0 135 95.5 211t251.5 76q201 0 327 -84l-59 -184q-125 100 -279 100q-143 0 -143 -98q0 -74 113 -99l145 -33q152 -35 211 -116.5t59 -175.5 q0 -135 -103.5 -221.5t-273.5 -86.5q-201 1 -348 103z" />
<glyph unicode="t" horiz-adv-x="655" d="M49 805v123l133 20l37 279h172v-285h180v-137h-180v-541q0 -61 12.5 -82.5t47.5 -21.5q41 0 131 49l36 -162q-86 -72 -249 -72q-117 0 -160 59.5t-43 182.5v588h-117z" />
<glyph unicode="u" horiz-adv-x="1116" d="M150 301v641h225v-612q0 -82 43 -127t114 -45q74 0 133.5 49t86.5 137v598h227v-942h-176l-12 131h-9q-78 -156 -309 -156q-323 0 -323 326z" />
<glyph unicode="v" horiz-adv-x="1067" d="M14 942h236l285 -756l296 756h222l-389 -942h-273z" />
<glyph unicode="w" horiz-adv-x="1677" d="M27 942h235l246 -723l223 723h225l224 -723l245 723h232l-342 -942h-268l-203 655l-203 -655h-272z" />
<glyph unicode="x" horiz-adv-x="1058" d="M37 0l362 481l-342 461h256l222 -317l210 317h256l-344 -457l365 -485h-256l-240 344l-233 -344h-256z" />
<glyph unicode="y" horiz-adv-x="1062" d="M6 942h236l327 -670l262 670h218l-390 -950q-35 -82 -81 -162t-113.5 -165t-157.5 -137t-186 -52q-25 0 -43 6l-39 176q25 -6 49 -6q90 0 154 41q127 80 233 338z" />
<glyph unicode="z" horiz-adv-x="862" d="M90 0v182l430 578h-409v182h643v-182l-443 -578h463v-182h-684z" />
<glyph unicode="{" horiz-adv-x="559" d="M63 618v103q147 8 148 227q0 66 -2 180.5t-2 135.5q0 150 59.5 221t235.5 71l4 -104q-72 -8 -72 -139q0 -35 2 -149.5t2 -143.5q0 -303 -192 -350q193 -47 192 -351q0 -29 -2 -143.5t-2 -146.5q0 -133 72 -142l-4 -104q-176 0 -235.5 72.5t-59.5 222.5q0 25 2 138.5 t2 160.5t-4 78.5t-16.5 73.5t-45.5 64.5t-82 24.5z" />
<glyph unicode="|" horiz-adv-x="458" d="M166 -233v1806h209v-1806h-209z" />
<glyph unicode="}" horiz-adv-x="559" d="M74 -113q72 8 71 140q0 35 -2 149.5t-2 142.5q0 303 193 351q-193 47 -193 350q0 29 2 143.5t2 147.5q0 133 -71 141l4 104q176 0 235.5 -72.5t59.5 -221.5q0 -25 -2 -138.5t-2 -161t4 -79t16 -73.5t45 -64.5t82 -24.5v-103q-147 -8 -147 -227q0 -66 2 -180.5t2 -134.5 q0 -150 -59.5 -221.5t-235.5 -71.5z" />
<glyph unicode="~" horiz-adv-x="987" d="M139 414q0 49 53.5 118.5t141.5 69.5q18 0 155.5 -9t198.5 -9q98 0 137 47l25 -41q0 -41 -49 -115t-137 -74q-18 0 -179 9.5t-202 9.5q-80 0 -117 -45z" />
<glyph unicode="&#xa1;" horiz-adv-x="454" d="M129 831.5q0 57.5 46 100.5t106 43q57 0 100 -43t43 -103q0 -57 -43 -99t-102.5 -42t-104.5 43t-45 100.5zM133 -446l53 1028h179l49 -1028h-281z" />
<glyph unicode="&#xa2;" horiz-adv-x="1021" d="M78 449q0 182 101.5 309t303.5 149v275h189v-279q152 -20 237 -74l-53 -190q-61 55 -184 82v-559q123 29 207 106l41 -190q-100 -66 -248 -90v-269h-189v261q-197 20 -301 151.5t-104 317.5zM297 455q0 -98 50 -178t136 -111v557q-88 -25 -137 -100.5t-49 -167.5z" />
<glyph unicode="&#xa3;" horiz-adv-x="1165" d="M72 74q150 57 222.5 164.5t72.5 242.5v31h-191v168h182q-4 39 -21.5 151.5t-17.5 165.5q0 182 120 273.5t282 91.5q92 0 183 -28.5t145 -71.5l-45 -187q-41 41 -120 71t-155 30q-164 0 -164 -177q0 -47 14.5 -159.5t18.5 -159.5h250v-168h-246q-8 -203 -135 -350l4 -6 q68 -4 220.5 -45t238.5 -41q98 0 190 39l-49 -201q-80 -41 -156 -41q-113 0 -308 67.5t-285 67.5q-115 0 -205 -74z" />
<glyph unicode="&#xa4;" horiz-adv-x="1189" d="M113 856l112 113l150 -146q119 80 243 80q133 0 242 -80l150 146l112 -111l-145 -149q80 -115 80 -242q0 -129 -78 -238l149 -147l-114 -113l-152 146q-113 -82 -239 -82q-121 0 -244 82l-150 -146l-110 113l145 147q-80 104 -80 242q0 127 82 238zM348 469 q0 -115 80 -194.5t195 -79.5q113 0 191.5 79.5t78.5 194.5t-79 194.5t-193 79.5q-113 0 -193 -78.5t-80 -195.5z" />
<glyph unicode="&#xa5;" horiz-adv-x="1331" d="M63 1352h265l346 -613l332 613h260l-334 -553h155v-168h-258l-45 -76v-33h303v-168h-303v-354h-235v354h-320v168h320v25l-51 84h-269v168h168z" />
<glyph unicode="&#xa6;" horiz-adv-x="466" d="M170 -233v794h209v-794h-209zM170 778v795h209v-795h-209z" />
<glyph unicode="&#xa7;" horiz-adv-x="897" d="M92 760q0 76 36 147.5t93 114.5q-23 61 -22 127q0 145 92 224t205 79q66 0 138.5 -27.5t121.5 -66.5l-68 -158q-80 61 -160 62q-53 0 -82.5 -37t-29.5 -99q0 -66 40 -123t97 -101t114.5 -89t97.5 -110.5t40 -141.5t-36 -147.5t-93 -116.5q23 -57 22 -125q0 -145 -92 -224 t-205 -79q-66 0 -138.5 27.5t-121.5 66.5l68 158q80 -61 160 -62q53 0 82.5 37t29.5 99q0 66 -40 123t-97 101t-114.5 89t-97.5 110.5t-40 141.5zM274 813q0 -76 51.5 -137.5t143.5 -135t133 -122.5q20 45 21 90q0 74 -51.5 136.5t-143.5 135t-135 123.5q-19 -39 -19 -90z " />
<glyph unicode="&#xa8;" horiz-adv-x="450" d="M0 1266q0 47 35 83.5t82 36.5t84 -37.5t37 -82.5q0 -47 -37 -82t-84 -35t-82 35t-35 82zM279 1266q0 47 34.5 83.5t81.5 36.5t84 -37.5t37 -82.5q0 -47 -37 -82t-84 -35t-81.5 35t-34.5 82z" />
<glyph unicode="&#xa9;" horiz-adv-x="1476" d="M117 725q0 254 181 434t439 180t440.5 -180t182.5 -434q0 -260 -183.5 -439.5t-449.5 -179.5q-250 0 -430 182.5t-180 436.5zM242 729q0 -215 139 -363.5t342 -148.5q217 0 361.5 145.5t144.5 360.5q0 211 -141.5 358.5t-346.5 147.5q-211 0 -355 -145.5t-144 -354.5z M391 729.5q0 149.5 85 247.5t255 98q154 0 242 -57l-33 -144q-31 18 -91.5 34t-113.5 16q-90 0 -134 -57.5t-44 -139.5q0 -86 48 -146.5t136 -60.5q117 0 213 74l25 -145q-111 -72 -258 -72q-158 0 -244 101.5t-86 251z" />
<glyph unicode="&#xaa;" horiz-adv-x="733" d="M106 903q0 100 82 157.5t226 57.5h51v19q0 51 -31 73q-35 27 -94 27q-78 0 -166 -61l-27 112q80 59 203 59.5t189 -51.5q76 -61 75 -170v-370h-120l-9 75h-8q-33 -41 -89 -66.5t-116 -25.5q-78 0 -122 45t-44 119zM250 922q0 -72 74 -72q90 0 141 70v112h-23 q-192 1 -192 -110z" />
<glyph unicode="&#xab;" horiz-adv-x="952" d="M76 489v11l274 360h230l-297 -362v-11l297 -362h-232zM473 489v11l275 360h229l-297 -362v-11l297 -362h-232z" />
<glyph unicode="&#xac;" horiz-adv-x="1300" d="M160 561v168h983v-489h-191v321h-792z" />
<glyph unicode="&#xad;" horiz-adv-x="966" d="M137 406v167h688v-167h-688z" />
<glyph unicode="&#xae;" horiz-adv-x="1476" d="M117 725q0 254 181 434t439 180t440.5 -180t182.5 -434q0 -260 -183.5 -439.5t-449.5 -179.5q-250 0 -430 182.5t-180 436.5zM242 729q0 -215 139 -363.5t342 -148.5q217 0 361.5 145.5t144.5 360.5q0 211 -141.5 358.5t-346.5 147.5q-211 0 -355 -145.5t-144 -354.5z M516 412v671q66 6 170 7q158 0 219.5 -58.5t61.5 -163.5q0 -119 -111 -180l154 -276h-146l-127 243h-22h-62v-243h-137zM653 754h60q55 0 88 36.5t33 90.5q0 111 -148 110h-33v-237z" />
<glyph unicode="&#xb0;" horiz-adv-x="700" d="M100 1079q0 115 74 192t205 77q135 0 209 -77t74 -196q0 -113 -72 -185.5t-211 -72.5t-209 74.5t-70 187.5zM244 1085q0 -59 35.5 -101t99.5 -42q68 0 99.5 39t31.5 98.5t-33 98.5t-98 39q-68 0 -101.5 -38.5t-33.5 -93.5z" />
<glyph unicode="&#xb1;" horiz-adv-x="993" d="M170 84v168h657v-168h-657zM172 582v168h238v182h188v-182h227v-168h-227v-207h-188v207h-238z" />
<glyph unicode="&#xb2;" horiz-adv-x="722" d="M125 612v138q47 59 134 138t132 137t45 124q0 88 -82 88q-96 0 -186 -109l-33 132q111 100 221 100q104 0 164 -54.5t60 -144.5q0 -74 -38 -134t-126 -146t-125 -131h297v-138h-463z" />
<glyph unicode="&#xb3;" horiz-adv-x="700" d="M98 694l31 99q35 -29 54.5 -42.5t52 -24.5t71.5 -11q170 0 170 137q0 55 -39 84t-133 29h-24v110h30q117 0 117 105q0 35 -18.5 52t-69.5 17q-90 0 -164 -59l-33 106q104 66 189 66q111 0 170 -50t59 -143q0 -86 -117 -143q156 -47 156 -184q0 -100 -72.5 -165 t-216.5 -65q-111 0 -213 82z" />
<glyph unicode="&#xb4;" horiz-adv-x="448" d="M0 1171l6 15l369 207q12 6 20 6q27 0 44.5 -34t17.5 -73q0 -51 -27 -59l-383 -141l-16 6z" />
<glyph unicode="&#xb5;" horiz-adv-x="1177" d="M80 -227q82 156 119 272.5t37 255.5v641h225v-612q0 -82 43 -127t114 -45q74 0 133.5 50t86.5 138v596h227v-942h-176l-12 131h-9q-78 -156 -307 -156q-86 0 -153 25l-5 -16q-35 -143 -110 -308z" />
<glyph unicode="&#xb6;" horiz-adv-x="1095" d="M74 928q0 209 133 321.5t358 112.5q74 0 398 -10v-1528h-175v1341h-90v-1341h-184v684h-43q-182 0 -289.5 121t-107.5 299z" />
<glyph unicode="&#xb7;" horiz-adv-x="468" d="M139 498q0 57 43 103t103 46q57 0 103 -46t46 -103q0 -59 -46 -102.5t-103 -43.5q-59 0 -102.5 43.5t-43.5 102.5z" />
<glyph unicode="&#xb8;" horiz-adv-x="413" d="M0 -395l57 98h15q61 -25 129 -25q90 0 90 62q0 63 -86 63q-49 0 -99 -14l-38 53l104 158h111l-52 -84q31 8 60 8q70 0 116 -48t46 -120q0 -82 -74 -142t-182 -60q-90 0 -195 38z" />
<glyph unicode="&#xb9;" horiz-adv-x="475" d="M72 1217l295 145v-750h-172v545l-97 -47z" />
<glyph unicode="&#xba;" horiz-adv-x="770" d="M100 1051q0 133 83 225t220 92q141 0 224.5 -94t83.5 -230q0 -129 -80 -219t-225 -90q-147 0 -226.5 92.5t-79.5 223.5zM266 1053q0 -76 36 -124t104 -48q137 0 137 163q0 76 -37 124.5t-107 48.5q-133 0 -133 -164z" />
<glyph unicode="&#xbb;" horiz-adv-x="952" d="M109 125l297 362v11l-297 362h229l274 -360v-11l-272 -364h-231zM506 125l297 362v11l-297 362h229l275 -360v-11l-273 -364h-231z" />
<glyph unicode="&#xbc;" horiz-adv-x="1359" d="M98 1217l295 145v-750h-172v545l-96 -47zM106 37l969 1339h236l-969 -1339h-236zM819 184v127l301 434h205v-434h74v-127h-74v-186h-133v186h-373zM989 311h203v316z" />
<glyph unicode="&#xbd;" horiz-adv-x="1406" d="M96 1217l295 145v-750h-172v545l-96 -47zM104 37l969 1339h236l-969 -1339h-236zM909 -2v137q47 59 134 138t132.5 137.5t45.5 124.5q0 88 -82 88q-96 0 -187 -109l-32 131q111 100 221 100q104 0 163.5 -54t59.5 -144q0 -74 -38 -134.5t-126 -146.5t-125 -131h297v-137 h-463z" />
<glyph unicode="&#xbe;" horiz-adv-x="1460" d="M92 694l31 99q35 -29 54.5 -42.5t52 -24.5t71.5 -11q170 0 170 137q0 55 -39 84t-133 29h-25v110h31q117 0 117 105q0 35 -18.5 52t-69.5 17q-90 0 -164 -59l-33 106q104 66 189 66q111 0 170 -50t59 -143q0 -86 -117 -143q156 -47 156 -184q0 -100 -72.5 -165 t-216.5 -65q-111 0 -213 82zM168 37l969 1339h235l-969 -1339h-235zM786 184v127l301 434h205v-434h74v-127h-74v-186h-133v186h-373zM956 311h203v316z" />
<glyph unicode="&#xbf;" horiz-adv-x="837" d="M104 -131q0 80 40 165t88.5 150.5t89 171t40.5 224.5h213q0 -127 -38.5 -238t-84.5 -174.5t-85 -138t-39 -135.5q0 -76 46 -112t113 -36q63 0 128 28.5t102 73.5l53 -196q-141 -106 -319 -107q-150 0 -248.5 92.5t-98.5 231.5zM315 831.5q0 57.5 46.5 100.5t105.5 43 q57 0 100 -43t43 -103q0 -57 -43 -99t-102 -42t-104.5 43t-45.5 100.5z" />
<glyph unicode="&#xc0;" d="M16 2l525 1352h202l578 -1352h-256l-154 393h-510l-139 -393h-246zM432 1630q0 39 17.5 73t44.5 34q8 0 20 -6l369 -207l6 -15l-31 -73l-16 -6l-383 141q-27 8 -27 59zM467 580h371l-195 497z" />
<glyph unicode="&#xc1;" d="M16 0l525 1352h202l578 -1352h-256l-154 393h-510l-139 -393h-246zM426 1511l6 15l369 207q12 6 20 6q27 0 44.5 -34t17.5 -73q0 -51 -27 -59l-383 -141l-16 6zM467 578h371l-195 497z" />
<glyph unicode="&#xc2;" d="M16 0l525 1352h202l578 -1352h-256l-154 393h-510l-139 -393h-246zM426 1507l6 15l225 202h17l225 -202l6 -15l-33 -59l-14 -6l-192 84l-193 -84l-14 6zM467 578h371l-195 497z" />
<glyph unicode="&#xc3;" d="M16 0l525 1352h202l578 -1352h-256l-154 393h-510l-139 -393h-246zM344 1511q29 92 69 139.5t132 47.5q39 0 129 -14.5t127 -14.5q84 0 155 53l25 -47q-14 -80 -58 -134t-126 -54q-29 0 -125.5 14.5t-147.5 14.5q-104 0 -153 -52zM467 578h371l-195 497z" />
<glyph unicode="&#xc4;" d="M16 0l525 1352h202l578 -1352h-256l-154 393h-510l-139 -393h-246zM406 1603.5q0 47.5 34.5 84t81.5 36.5t84 -36.5t37 -84t-37 -82t-84 -34.5t-81.5 34.5t-34.5 82zM467 578h371l-195 497zM684 1603.5q0 47.5 35 84t82 36.5t84 -36.5t37 -84t-37 -82t-84 -34.5t-82 34.5 t-35 82z" />
<glyph unicode="&#xc5;" d="M16 0l519 1300q-84 47 -84 144q0 74 56 126t142 52t141.5 -54.5t55.5 -127.5q0 -90 -80 -140l571 -1300h-264l-153 414h-510l-140 -414h-254zM475 598h371l-195 477zM571 1446q0 -35 23.5 -60.5t56.5 -25.5q31 0 51.5 24.5t20.5 55.5q0 33 -21.5 56.5t-54.5 23.5 q-35 0 -55.5 -21.5t-20.5 -52.5z" />
<glyph unicode="&#xc6;" horiz-adv-x="1562" d="M-16 0l721 1352h735v-209h-414v-322h277v-209h-277v-403h455v-209h-678v389h-363l-207 -389h-249zM549 594h254v479z" />
<glyph unicode="&#xc7;" horiz-adv-x="1314" d="M117 662q0 305 177 502.5t499 197.5q236 0 411 -88l-59 -213q-145 100 -365 100q-213 0 -313 -128t-100 -355q0 -246 105.5 -374t303.5 -128q236 0 391 127l62 -203q-190 -115 -420 -123l-37 -61q31 8 59 8q70 0 116 -48t46 -120q0 -82 -73.5 -142t-182.5 -60 q-90 0 -194 38l-2 13l57 98h14q61 -25 129 -25q90 0 90 62q0 63 -86 63q-49 0 -98 -14l-39 53l90 138q-285 23 -433 213t-148 469z" />
<glyph unicode="&#xc8;" horiz-adv-x="1079" d="M203 0v1352h782v-205h-547v-328h410v-205h-410v-409h588v-205h-823zM379 1630q0 39 17.5 73t43.5 34q8 0 21 -6l368 -207l7 -15l-31 -73l-17 -6l-382 141q-27 8 -27 59z" />
<glyph unicode="&#xc9;" horiz-adv-x="1079" d="M203 0v1352h782v-205h-547v-328h410v-205h-410v-409h588v-205h-823zM403 1509l7 15l368 207q12 6 21 6q27 0 44 -34t17 -73q0 -51 -26 -59l-383 -141l-17 6z" />
<glyph unicode="&#xca;" horiz-adv-x="1079" d="M203 0v1352h782v-205h-547v-328h410v-205h-410v-409h588v-205h-823zM389 1507l6 15l226 202h16l225 -202l6 -15l-32 -59l-15 -6l-192 84l-193 -84l-14 6z" />
<glyph unicode="&#xcb;" horiz-adv-x="1079" d="M203 0v1352h782v-205h-547v-328h410v-205h-410v-409h588v-205h-823zM352 1606q0 47 35 83.5t82 36.5t84 -37.5t37 -82.5q0 -47 -37 -82t-84 -35t-82 35t-35 82zM631 1606q0 47 34.5 83.5t82 36.5t84 -37.5t36.5 -82.5q0 -47 -36.5 -82t-84 -35t-82 35t-34.5 82z" />
<glyph unicode="&#xcc;" horiz-adv-x="559" d="M31 1630q0 39 17.5 73t43.5 34q8 0 21 -6l368 -207l6 -15l-30 -73l-17 -6l-383 141q-26 8 -26 59zM166 0v1352h235v-1352h-235z" />
<glyph unicode="&#xcd;" horiz-adv-x="559" d="M72 1509l6 15l368 207q12 6 21 6q27 0 44 -34t17 -73q0 -51 -26 -59l-383 -141l-17 6zM158 0v1352h235v-1352h-235z" />
<glyph unicode="&#xce;" horiz-adv-x="559" d="M37 1507l6 15l225 202h17l225 -202l6 -15l-33 -59l-14 -6l-193 84l-192 -84l-14 6zM164 0v1352h235v-1352h-235z" />
<glyph unicode="&#xcf;" horiz-adv-x="559" d="M39 1603.5q0 47.5 35 84t82 36.5q45 0 82.5 -36.5t37.5 -84t-36.5 -82t-83.5 -34.5t-82 34.5t-35 82zM176 0v1352h236v-1352h-236zM317 1603.5q0 47.5 35 84t82 36.5q45 0 83 -36.5t38 -84t-37 -82t-84 -34.5t-82 34.5t-35 82z" />
<glyph unicode="&#xd0;" horiz-adv-x="1445" d="M29 637v151h151v564q123 10 418 10q362 0 539 -154q207 -180 206 -561q0 -115 -20 -208t-73.5 -181t-139.5 -148.5t-226.5 -96.5t-324.5 -36q-180 0 -379 23v637h-151zM416 180q100 -8 200 -8q250 0 363 119t113 387q0 252 -111 369.5t-387 117.5q-106 0 -178 -2v-375 h303v-151h-303v-457z" />
<glyph unicode="&#xd1;" horiz-adv-x="1441" d="M203 0v1352h289l593 -994v994h236v-1352h-289l-594 991v-991h-235zM410 1511q29 92 68.5 139.5t131.5 47.5q39 0 129 -14.5t127 -14.5q84 0 156 53l25 -47q-14 -80 -58.5 -134t-126.5 -54q-29 0 -125 14.5t-147 14.5q-104 0 -154 -52z" />
<glyph unicode="&#xd2;" horiz-adv-x="1548" d="M115 659q0 303 176 503t483 200t483.5 -198.5t176.5 -489.5q0 -137 -43 -261t-125 -222.5t-213 -157t-293 -58.5q-209 0 -358.5 96.5t-218 248t-68.5 339.5zM367 680q0 -248 102 -376t295 -128q213 0 316.5 135t103.5 357q0 229 -103.5 361t-312.5 132t-305 -128 t-96 -353zM485 1630q0 39 17.5 73t44.5 34q8 0 20 -6l369 -207l6 -15l-31 -73l-16 -6l-383 141q-27 8 -27 59z" />
<glyph unicode="&#xd3;" horiz-adv-x="1548" d="M115 659q0 303 176 503t483 200t483.5 -198.5t176.5 -489.5q0 -137 -43 -261t-125 -222.5t-213 -157t-293 -58.5q-209 0 -358.5 96.5t-218 248t-68.5 339.5zM367 680q0 -248 102 -376t295 -128q213 0 316.5 135t103.5 357q0 229 -103.5 361t-312.5 132t-305 -128 t-96 -353zM625 1509l6 15l368 207q12 6 21 6q27 0 44 -34t17 -73q0 -51 -26 -59l-383 -141l-17 6z" />
<glyph unicode="&#xd4;" horiz-adv-x="1548" d="M115 659q0 303 176 503t483 200t483.5 -198.5t176.5 -489.5q0 -137 -43 -261t-125 -222.5t-213 -157t-293 -58.5q-209 0 -358.5 96.5t-218 248t-68.5 339.5zM367 680q0 -248 102 -376t295 -128q213 0 316.5 135t103.5 357q0 229 -103.5 361t-312.5 132t-305 -128 t-96 -353zM555 1507l6 15l225 202h17l225 -202l6 -15l-33 -59l-14 -6l-192 84l-193 -84l-14 6z" />
<glyph unicode="&#xd5;" horiz-adv-x="1548" d="M115 659q0 303 176 503t483 200t483.5 -198.5t176.5 -489.5q0 -137 -43 -261t-125 -222.5t-213 -157t-293 -58.5q-209 0 -358.5 96.5t-218 248t-68.5 339.5zM367 680q0 -248 102 -376t295 -128q213 0 316.5 135t103.5 357q0 229 -103.5 361t-312.5 132t-305 -128 t-96 -353zM457 1511q29 92 68.5 139.5t131.5 47.5q39 0 129.5 -14.5t126.5 -14.5q84 0 156 53l25 -47q-14 -80 -58.5 -134t-126.5 -54q-29 0 -125 14.5t-147 14.5q-104 0 -154 -52z" />
<glyph unicode="&#xd6;" horiz-adv-x="1548" d="M115 659q0 303 176 503t483 200t483.5 -198.5t176.5 -489.5q0 -137 -43 -261t-125 -222.5t-213 -157t-293 -58.5q-209 0 -358.5 96.5t-218 248t-68.5 339.5zM367 680q0 -248 102 -376t295 -128q213 0 316.5 135t103.5 357q0 229 -103.5 361t-312.5 132t-305 -128 t-96 -353zM518 1603.5q0 47.5 35 84t82 36.5q45 0 83 -36.5t38 -84t-37 -82t-84 -34.5t-82 34.5t-35 82zM797 1603.5q0 47.5 34.5 84t81.5 36.5q45 0 83 -36.5t38 -84t-36.5 -82t-84 -34.5t-82 34.5t-34.5 82z" />
<glyph unicode="&#xd7;" horiz-adv-x="942" d="M147 258l232 231l-232 230l107 106l231 -229l234 233l106 -106l-233 -234l233 -235l-104 -104l-236 233l-231 -231z" />
<glyph unicode="&#xd8;" horiz-adv-x="1550" d="M78 0l190 223q-125 180 -125 436q0 303 176.5 503t483.5 200q199 0 354 -92l172 203l166 -127l-182 -216q150 -186 149 -456q0 -137 -43 -261t-125 -222.5t-213 -157t-293 -58.5q-221 0 -370 103l-185 -217zM395 680q0 -147 39 -260l584 686q-88 55 -221 55 q-209 0 -305.5 -128t-96.5 -353zM559 244q92 -68 234 -68q213 0 316 135t103 357q0 164 -55 280z" />
<glyph unicode="&#xd9;" horiz-adv-x="1404" d="M186 475v877h236v-828q0 -348 326 -348q328 0 327 348v828h225v-877q0 -217 -142 -357.5t-423 -140.5q-279 0 -414 139.5t-135 358.5zM487 1630q0 39 17.5 73t44.5 34q8 0 20 -6l369 -207l6 -15l-31 -73l-16 -6l-383 141q-27 8 -27 59z" />
<glyph unicode="&#xda;" horiz-adv-x="1404" d="M186 475v877h236v-828q0 -348 326 -348q328 0 327 348v828h225v-877q0 -217 -142 -357.5t-423 -140.5q-279 0 -414 139.5t-135 358.5zM547 1509l6 15l369 207q12 6 20 6q27 0 44.5 -34t17.5 -73q0 -51 -27 -59l-383 -141l-16 6z" />
<glyph unicode="&#xdb;" horiz-adv-x="1404" d="M186 475v877h236v-828q0 -348 326 -348q328 0 327 348v828h225v-877q0 -217 -142 -357.5t-423 -140.5q-279 0 -414 139.5t-135 358.5zM496 1507l6 15l225 202h16l226 -202l6 -15l-33 -59l-14 -6l-193 84l-192 -84l-15 6z" />
<glyph unicode="&#xdc;" horiz-adv-x="1404" d="M186 475v877h236v-828q0 -348 326 -348q328 0 327 348v828h225v-877q0 -217 -142 -357.5t-423 -140.5q-279 0 -414 139.5t-135 358.5zM510 1603.5q0 47.5 35 84t82 36.5q45 0 83 -36.5t38 -84t-37 -82t-84 -34.5t-82 34.5t-35 82zM788 1603.5q0 47.5 35 84t82 36.5 q45 0 83 -36.5t38 -84t-37 -82t-84 -34.5t-82 34.5t-35 82z" />
<glyph unicode="&#xdd;" horiz-adv-x="1161" d="M-20 1352h264l346 -613l332 613h260l-482 -797v-555h-235v547zM436 1509l6 15l369 207q12 6 20 6q27 0 44.5 -34t17.5 -73q0 -51 -27 -59l-383 -141l-16 6z" />
<glyph unicode="&#xde;" horiz-adv-x="1050" d="M203 0v1352h235v-164h90q236 0 374 -112.5t138 -321.5q0 -182 -119.5 -301t-349.5 -119q-92 0 -133 2v-336h-235zM438 532q39 -2 127 -2q223 0 223 240q0 221 -227 221q-84 0 -123 -2v-457z" />
<glyph unicode="&#xdf;" horiz-adv-x="1118" d="M162 0v995q0 238 105.5 375t303.5 137q145 0 238.5 -82t93.5 -194q0 -78 -52 -160t-104.5 -152.5t-52.5 -119.5q0 -45 42 -86t101.5 -78t119 -80t101.5 -113.5t42 -158.5q0 -166 -105.5 -252t-224.5 -86q-137 0 -240 90l60 215q78 -137 194 -137q43 0 73 38.5t30 108.5 q0 80 -40 139.5t-97.5 96t-114.5 71.5t-97 89.5t-40 127.5q0 63 29.5 127t65.5 106t65.5 97t29.5 106.5t-32.5 86t-92.5 34.5q-61 0 -102 -27.5t-60.5 -79.5t-26.5 -107.5t-7 -131.5v-995h-205z" />
<glyph unicode="&#xe0;" horiz-adv-x="1021" d="M84 248q0 168 138 263t374 95h88v31q0 80 -51 117t-166 37q-152 0 -270 -68l-43 170q137 80 331 80q205 0 312 -84q113 -88 112 -248v-641h-180l-16 129h-8q-55 -70 -150.5 -112t-194.5 -42q-127 0 -201.5 75t-74.5 198zM229 1288q0 39 17.5 73t44.5 34q8 0 20 -6 l369 -207l6 -15l-31 -73l-16 -7l-383 142q-27 8 -27 59zM324 281q0 -123 125 -123q66 0 131 32.5t104 83.5v187h-39q-168 0 -244.5 -43t-76.5 -137z" />
<glyph unicode="&#xe1;" horiz-adv-x="1021" d="M84 248q0 168 138 263t374 95h88v31q0 80 -51 117t-166 37q-152 0 -270 -68l-43 170q137 80 331 80q205 0 312 -84q113 -88 112 -248v-641h-180l-16 129h-8q-55 -70 -150.5 -112t-194.5 -42q-127 0 -201.5 75t-74.5 198zM324 281q0 -123 125 -123q66 0 131 32.5t104 83.5 v187h-39q-168 0 -244.5 -43t-76.5 -137zM381 1169l6 15l369 207q12 6 20 6q27 0 44.5 -34t17.5 -73q0 -51 -27 -59l-383 -141l-16 6z" />
<glyph unicode="&#xe2;" horiz-adv-x="1021" d="M84 248q0 168 138 263t374 95h88v31q0 80 -51 117t-166 37q-152 0 -270 -68l-43 170q137 80 331 80q205 0 312 -84q113 -88 112 -248v-641h-180l-16 129h-8q-55 -70 -150.5 -112t-194.5 -42q-127 0 -201.5 75t-74.5 198zM270 1161l6 15l226 202h16l225 -202l7 -15 l-33 -59l-15 -6l-192 84l-193 -84l-14 6zM324 281q0 -123 125 -123q66 0 131 32.5t104 83.5v187h-39q-168 0 -244.5 -43t-76.5 -137z" />
<glyph unicode="&#xe3;" horiz-adv-x="1021" d="M84 248q0 168 138 263t374 95h88v31q0 80 -51 117t-166 37q-152 0 -270 -68l-43 170q137 80 331 80q205 0 312 -84q113 -88 112 -248v-641h-180l-16 129h-8q-55 -70 -150.5 -112t-194.5 -42q-127 0 -201.5 75t-74.5 198zM207 1184q29 92 68.5 139t132.5 47 q39 0 129 -14.5t127 -14.5q84 0 155 54l25 -47q-14 -80 -58.5 -134.5t-126.5 -54.5q-29 0 -125 14.5t-147 14.5q-104 0 -154 -51zM324 281q0 -123 125 -123q66 0 131 32.5t104 83.5v187h-39q-168 0 -244.5 -43t-76.5 -137z" />
<glyph unicode="&#xe4;" horiz-adv-x="1021" d="M84 248q0 168 138 263t374 95h88v31q0 80 -51 117t-166 37q-152 0 -270 -68l-43 170q137 80 331 80q205 0 312 -84q113 -88 112 -248v-641h-180l-16 129h-8q-55 -70 -150.5 -112t-194.5 -42q-127 0 -201.5 75t-74.5 198zM272 1253q0 47 35 84t82 37q45 0 83 -38t38 -83 q0 -47 -37 -81.5t-84 -34.5t-82 34.5t-35 81.5zM324 281q0 -123 125 -123q66 0 131 32.5t104 83.5v187h-39q-168 0 -244.5 -43t-76.5 -137zM551 1253q0 47 35 84t82 37q45 0 82.5 -38t37.5 -83q0 -47 -36.5 -81.5t-83.5 -34.5t-82 34.5t-35 81.5z" />
<glyph unicode="&#xe5;" horiz-adv-x="1021" d="M84 248q0 168 138 263t374 95h88v31q0 80 -51 117t-166 37q-152 0 -270 -68l-43 170q137 80 331 80q205 0 312 -84q113 -88 112 -248v-641h-180l-16 129h-8q-55 -70 -150.5 -112t-194.5 -42q-127 0 -201.5 75t-74.5 198zM324 281q0 -123 125 -123q66 0 131 32.5t104 83.5 v187h-39q-168 0 -244.5 -43t-76.5 -137zM350 1249q0 68 52.5 119t136.5 51t137 -52t53 -122q0 -66 -51 -115t-137 -49q-90 0 -140.5 51t-50.5 117zM467 1251.5q0 -30.5 21.5 -55.5t52 -25t50 23t19.5 51q0 31 -20.5 57.5t-53 26.5t-51 -23.5t-18.5 -54z" />
<glyph unicode="&#xe6;" horiz-adv-x="1683" d="M84 248q0 111 53 186.5t140.5 110.5t164 48t156.5 13h86v19q0 94 -63 135q-47 31 -134 31q-150 0 -290 -68l-43 170q147 80 346 80q244 0 346 -133q133 133 346 133q180 0 278.5 -91t98.5 -257q0 -121 -39 -174h-596q8 -131 79.5 -214t198.5 -83q74 0 159 28.5t147 71.5 l36 -168q-176 -111 -376 -111q-244 0 -373 177q-156 -176 -436 -177q-137 0 -211 76t-74 197zM324 266q0 -51 33.5 -79.5t91.5 -28.5q61 0 128.5 31.5t106.5 84.5v191h-14q-72 0 -124 -6t-107.5 -25.5t-85 -62t-29.5 -105.5zM952 610h391q2 12 3 37q0 70 -46.5 110 t-113.5 40q-88 0 -147.5 -51.5t-86.5 -135.5z" />
<glyph unicode="&#xe7;" horiz-adv-x="1024" d="M100 479q0 213 123 353.5t365 140.5q217 0 344 -82l-49 -182q-47 35 -131 61.5t-158 26.5q-131 0 -191.5 -86t-60.5 -219q0 -145 68.5 -239.5t195.5 -94.5q76 0 159 30.5t136 81.5l41 -192q-137 -88 -326 -101l-36 -61q31 8 59 8q70 0 116 -48t46 -120q0 -82 -74 -142 t-182 -60q-90 0 -195 38l-2 13l58 98h14q61 -25 129 -25q90 0 90 62q0 63 -86 63q-49 0 -98 -14l-39 53l90 138q-197 23 -301.5 161.5t-104.5 337.5z" />
<glyph unicode="&#xe8;" horiz-adv-x="1060" d="M96 471q0 213 130 357.5t356 144.5q180 0 278 -91t98 -257q0 -121 -38 -174h-596q8 -131 79.5 -214t198.5 -83q74 0 159 28.5t146 71.5l37 -168q-176 -111 -377 -111q-219 0 -345 143.5t-126 352.5zM279 1288q0 39 17 73t44 34q8 0 20 -6l369 -207l6 -15l-30 -73l-17 -7 l-383 142q-26 8 -26 59zM342 610h391q2 12 2 37q0 70 -46 110t-114 40q-88 0 -147 -51.5t-86 -135.5z" />
<glyph unicode="&#xe9;" horiz-adv-x="1060" d="M96 471q0 213 130 357.5t356 144.5q180 0 278 -91t98 -257q0 -121 -38 -174h-596q8 -131 79.5 -214t198.5 -83q74 0 159 28.5t146 71.5l37 -168q-176 -111 -377 -111q-219 0 -345 143.5t-126 352.5zM342 610h391q2 12 2 37q0 70 -46 110t-114 40q-88 0 -147 -51.5 t-86 -135.5zM391 1169l6 15l4 2l365 205q12 6 20 6q27 0 45 -39l7 -12q10 -31 10 -56q0 -51 -27 -59l-383 -141l-16 6l-14 34z" />
<glyph unicode="&#xea;" horiz-adv-x="1060" d="M96 471q0 213 130 357.5t356 144.5q180 0 278 -91t98 -257q0 -121 -38 -174h-596q8 -131 79.5 -214t198.5 -83q74 0 159 28.5t146 71.5l37 -168q-176 -111 -377 -111q-219 0 -345 143.5t-126 352.5zM315 1161l7 15l225 202h16l225 -202l7 -15l-33 -59l-14 -6l-193 84 l-193 -84l-14 6zM342 610h391q2 12 2 37q0 70 -46 110t-114 40q-88 0 -147 -51.5t-86 -135.5z" />
<glyph unicode="&#xeb;" horiz-adv-x="1060" d="M96 471q0 213 130 357.5t356 144.5q180 0 278 -91t98 -257q0 -121 -38 -174h-596q8 -131 79.5 -214t198.5 -83q74 0 159 28.5t146 71.5l37 -168q-176 -111 -377 -111q-219 0 -345 143.5t-126 352.5zM295 1253q0 47 35 84t82 37t83.5 -38t36.5 -83q0 -47 -36.5 -81.5 t-83.5 -34.5t-82 34.5t-35 81.5zM342 610h391q2 12 2 37q0 70 -46 110t-114 40q-88 0 -147 -51.5t-86 -135.5zM573 1253q0 47 35 84t82 37t84 -38t37 -83q0 -47 -37 -81.5t-84 -34.5t-82 34.5t-35 81.5z" />
<glyph unicode="&#xec;" horiz-adv-x="466" d="M-68 1288q0 39 17.5 73t44.5 34q8 0 20 -6l369 -207l6 -15l-31 -73l-16 -7l-383 142q-27 8 -27 59zM123 0v942h225v-942h-225z" />
<glyph unicode="&#xed;" horiz-adv-x="466" d="M33 1169l6 15l369 207q12 6 20 6q27 0 44 -34t17 -73q0 -51 -26 -59l-383 -141l-17 6zM125 0v942h225v-942h-225z" />
<glyph unicode="&#xee;" horiz-adv-x="466" d="M-12 1161l6 15l225 202h17l225 -202l6 -15l-33 -59l-14 -6l-193 84l-192 -84l-15 6zM121 0v942h225v-942h-225z" />
<glyph unicode="&#xef;" horiz-adv-x="466" d="M-14 1253q0 47 34.5 84t81.5 37q45 0 83 -38t38 -83q0 -47 -36.5 -81.5t-84 -34.5t-82 34.5t-34.5 81.5zM133 0v942h225v-942h-225zM264 1253q0 47 35 84t82 37q45 0 83 -38t38 -83q0 -47 -37 -81.5t-84 -34.5t-82 34.5t-35 81.5z" />
<glyph unicode="&#xf0;" horiz-adv-x="1185" d="M98 475q0 215 120 356.5t345 141.5q240 0 316 -142l6 3q-27 195 -137 366l-203 -90l-60 100l193 86q-39 61 -164 117l86 123q123 -51 227 -170l197 68l55 -99l-176 -69q178 -270 178 -691q0 -125 -27.5 -228t-85 -189t-159.5 -134.5t-242 -48.5q-231 0 -350 147.5 t-119 352.5zM340 481q0 -141 60.5 -238.5t177.5 -97.5q115 0 173 90.5t58 227.5q0 141 -61.5 237.5t-180.5 96.5q-113 0 -170 -89.5t-57 -226.5z" />
<glyph unicode="&#xf1;" horiz-adv-x="1116" d="M162 0v942h176l10 -139h8q41 82 131.5 126t198.5 44q147 0 239.5 -79t92.5 -253v-641h-225v623q0 168 -144 168q-76 0 -155.5 -51.5t-106.5 -135.5v-604h-225zM254 1184q29 92 68.5 139t132.5 47q39 0 129 -14.5t127 -14.5q84 0 155 54l25 -47q-14 -80 -58.5 -134.5 t-125.5 -54.5q-29 0 -125.5 14.5t-147.5 14.5q-104 0 -153 -51z" />
<glyph unicode="&#xf2;" horiz-adv-x="1148" d="M98 475q0 213 122 355.5t353 142.5q236 0 357 -145.5t121 -362.5q0 -213 -120 -351.5t-351 -138.5q-236 0 -359 142.5t-123 357.5zM276 1288q0 39 17.5 73t44.5 34q8 0 20 -6l369 -207l6 -15l-31 -73l-16 -7l-383 142q-27 8 -27 59zM340 481q0 -141 60.5 -238.5 t177.5 -97.5q115 0 173 90.5t58 227.5q0 141 -61.5 237.5t-180.5 96.5q-113 0 -170 -89.5t-57 -226.5z" />
<glyph unicode="&#xf3;" horiz-adv-x="1148" d="M98 475q0 213 122 355.5t353 142.5q236 0 357 -145.5t121 -362.5q0 -213 -120 -351.5t-351 -138.5q-236 0 -359 142.5t-123 357.5zM340 481q0 -141 60.5 -238.5t177.5 -97.5q115 0 173 90.5t58 227.5q0 141 -61.5 237.5t-180.5 96.5q-113 0 -170 -89.5t-57 -226.5z M406 1169l6 15l368 207q12 6 21 6q27 0 44 -34t17 -73q0 -51 -26 -59l-383 -141l-17 6z" />
<glyph unicode="&#xf4;" horiz-adv-x="1148" d="M98 475q0 213 122 355.5t353 142.5q236 0 357 -145.5t121 -362.5q0 -213 -120 -351.5t-351 -138.5q-236 0 -359 142.5t-123 357.5zM340 481q0 -141 60.5 -238.5t177.5 -97.5q115 0 173 90.5t58 227.5q0 141 -61.5 237.5t-180.5 96.5q-113 0 -170 -89.5t-57 -226.5z M352 1161l6 15l226 202h16l225 -202l6 -15l-32 -59l-15 -6l-192 84l-193 -84l-14 6z" />
<glyph unicode="&#xf5;" horiz-adv-x="1148" d="M98 475q0 213 122 355.5t353 142.5q236 0 357 -145.5t121 -362.5q0 -213 -120 -351.5t-351 -138.5q-236 0 -359 142.5t-123 357.5zM236 1184q29 92 68.5 139t131.5 47q39 0 129 -14.5t127 -14.5q84 0 156 54l24 -47q-14 -80 -58 -134.5t-126 -54.5q-29 0 -125 14.5 t-147 14.5q-104 0 -154 -51zM340 481q0 -141 60.5 -238.5t177.5 -97.5q115 0 173 90.5t58 227.5q0 141 -61.5 237.5t-180.5 96.5q-113 0 -170 -89.5t-57 -226.5z" />
<glyph unicode="&#xf6;" horiz-adv-x="1148" d="M98 475q0 213 122 355.5t353 142.5q236 0 357 -145.5t121 -362.5q0 -213 -120 -351.5t-351 -138.5q-236 0 -359 142.5t-123 357.5zM319 1253q0 47 35 84t82 37t84 -38t37 -83q0 -47 -37 -81.5t-84 -34.5t-82 34.5t-35 81.5zM340 481q0 -141 60.5 -238.5t177.5 -97.5 q115 0 173 90.5t58 227.5q0 141 -61.5 237.5t-180.5 96.5q-113 0 -170 -89.5t-57 -226.5zM598 1253q0 47 35 84t82 37t84 -38t37 -83q0 -47 -37 -81.5t-84 -34.5t-82 34.5t-35 81.5z" />
<glyph unicode="&#xf7;" horiz-adv-x="1165" d="M160 406v167h848v-167h-848zM459 131q0 57 43 103.5t102 46.5q57 0 103.5 -46.5t46.5 -103.5q0 -59 -46 -102t-104 -43q-59 0 -102 43t-43 102zM459 844q0 57 43 103t102 46q57 0 103.5 -46t46.5 -103q0 -59 -46 -102.5t-104 -43.5q-59 0 -102 43.5t-43 102.5z" />
<glyph unicode="&#xf8;" horiz-adv-x="1153" d="M66 0l143 170q-82 127 -82 305q0 213 122 355.5t353 142.5q137 0 242 -55l135 157l166 -127l-148 -174q82 -131 82 -309q0 -213 -119.5 -351.5t-351.5 -138.5q-137 0 -243 54l-144 -168zM369 481q0 -51 10 -112l336 395q-53 33 -119 33q-113 0 -170 -89.5t-57 -226.5z M489 178q47 -33 117 -33q115 0 173.5 90.5t58.5 227.5q0 57 -13 110z" />
<glyph unicode="&#xf9;" horiz-adv-x="1116" d="M150 301v641h225v-612q0 -82 43 -127t114 -45q74 0 133.5 49t86.5 137v598h227v-942h-176l-12 131h-9q-78 -156 -309 -156q-323 0 -323 326zM268 1288q0 39 17.5 73t44.5 34q8 0 20 -6l369 -207l6 -15l-31 -73l-16 -7l-383 142q-27 8 -27 59z" />
<glyph unicode="&#xfa;" horiz-adv-x="1116" d="M150 301v641h225v-612q0 -82 43 -127t114 -45q74 0 133.5 49t86.5 137v598h227v-942h-176l-12 131h-9q-78 -156 -309 -156q-323 0 -323 326zM344 1169l6 15l369 207q12 6 20 6q27 0 44.5 -34t17.5 -73q0 -51 -27 -59l-383 -141l-16 6z" />
<glyph unicode="&#xfb;" horiz-adv-x="1116" d="M150 301v641h225v-612q0 -82 43 -127t114 -45q74 0 133.5 49t86.5 137v598h227v-942h-176l-12 131h-9q-78 -156 -309 -156q-323 0 -323 326zM315 1161l7 15l225 202h16l225 -202l7 -15l-33 -59l-14 -6l-193 84l-193 -84l-14 6z" />
<glyph unicode="&#xfc;" horiz-adv-x="1116" d="M150 301v641h225v-612q0 -82 43 -127t114 -45q74 0 133.5 49t86.5 137v598h227v-942h-176l-12 131h-9q-78 -156 -309 -156q-323 0 -323 326zM297 1253q0 47 35 84t82 37q45 0 83 -38t38 -83q0 -47 -37 -81.5t-84 -34.5t-82 34.5t-35 81.5zM575 1253q0 47 35 84t82 37 q45 0 83 -38t38 -83q0 -47 -37 -81.5t-84 -34.5t-82 34.5t-35 81.5z" />
<glyph unicode="&#xfd;" horiz-adv-x="1062" d="M6 942h236l327 -670l262 670h218l-390 -950q-35 -82 -81 -162t-113.5 -165t-157.5 -137t-186 -52q-25 0 -43 6l-39 176q25 -6 49 -6q90 0 154 41q127 80 233 338zM403 1169l7 15l368 207q12 6 21 6q27 0 44 -34t17 -73q0 -51 -26 -59l-383 -141l-17 6z" />
<glyph unicode="&#xfe;" horiz-adv-x="1181" d="M162 -532v2048h217v-682h8q49 59 135 99t164 40q209 0 316.5 -144.5t107.5 -359.5t-109.5 -354.5t-318.5 -139.5q-205 0 -297 113v-620h-223zM385 268q94 -115 244 -114q127 0 192.5 87t65.5 224t-60.5 236.5t-177.5 99.5q-63 0 -141 -38t-123 -95v-400z" />
<glyph unicode="&#xff;" horiz-adv-x="1062" d="M6 942h236l327 -670l262 670h218l-390 -950q-35 -82 -81 -162t-113.5 -165t-157.5 -137t-186 -52q-25 0 -43 6l-39 176q25 -6 49 -6q90 0 154 41q127 80 233 338zM270 1253q0 47 35 84t82 37t84 -38t37 -83q0 -47 -37 -81.5t-84 -34.5t-82 34.5t-35 81.5zM549 1253 q0 47 34.5 84t82 37t84 -38t36.5 -83q0 -47 -36.5 -81.5t-84 -34.5t-82 34.5t-34.5 81.5z" />
<glyph unicode="&#x152;" horiz-adv-x="1759" d="M115 659q0 303 176 503t483 200q70 0 148 -10h702v-205h-508v-328h371v-205h-371v-409h549v-205h-709q-88 -25 -196 -25q-209 0 -358.5 96.5t-218 248t-68.5 339.5zM367 680q0 -250 102 -379t295 -129q63 0 117 18v957q-53 18 -113 18q-209 0 -305 -129t-96 -356z" />
<glyph unicode="&#x153;" horiz-adv-x="1871" d="M98 475q0 213 122 355.5t353 142.5q250 0 351 -180q121 180 352 180q180 0 278.5 -91t98.5 -257q0 -121 -39 -174h-596q8 -131 79.5 -214t198.5 -83q74 0 159 28.5t147 71.5l36 -168q-176 -111 -376 -111q-231 0 -336 172q-96 -172 -346 -172q-236 0 -359 142.5 t-123 357.5zM340 481q0 -141 60.5 -238.5t177.5 -97.5q115 0 173 90.5t58 227.5q0 141 -61.5 237.5t-180.5 96.5q-113 0 -170 -89.5t-57 -226.5zM1036 610h391q2 12 3 37q0 70 -46.5 110t-113.5 40q-88 0 -147.5 -51.5t-86.5 -135.5z" />
<glyph unicode="&#x178;" horiz-adv-x="1161" d="M-20 1352h264l346 -613l332 613h260l-482 -797v-555h-235v547zM332 1603.5q0 47.5 34.5 84t82 36.5t84 -36.5t36.5 -84t-36.5 -82t-84 -34.5t-82 34.5t-34.5 82zM610 1603.5q0 47.5 35 84t82 36.5t84 -36.5t37 -84t-37 -82t-84 -34.5t-82 34.5t-35 82z" />
<glyph unicode="&#x2c6;" horiz-adv-x="479" d="M0 1161l6 15l225 202h17l225 -202l6 -15l-33 -59l-14 -6l-192 84l-193 -84l-14 6z" />
<glyph unicode="&#x2dc;" horiz-adv-x="636" d="M0 1163q29 92 69 139.5t132 47.5q39 0 129 -14.5t127 -14.5q84 0 155 53l25 -47q-14 -80 -58 -134t-126 -54q-29 0 -125.5 14t-147.5 14q-104 0 -153 -51z" />
<glyph unicode="&#x2000;" horiz-adv-x="868" />
<glyph unicode="&#x2001;" horiz-adv-x="1738" />
<glyph unicode="&#x2002;" horiz-adv-x="868" />
<glyph unicode="&#x2003;" horiz-adv-x="1738" />
<glyph unicode="&#x2004;" horiz-adv-x="579" />
<glyph unicode="&#x2005;" horiz-adv-x="434" />
<glyph unicode="&#x2006;" horiz-adv-x="288" />
<glyph unicode="&#x2007;" horiz-adv-x="288" />
<glyph unicode="&#x2008;" horiz-adv-x="217" />
<glyph unicode="&#x2009;" horiz-adv-x="346" />
<glyph unicode="&#x200a;" horiz-adv-x="96" />
<glyph unicode="&#x2010;" horiz-adv-x="966" d="M137 406v167h692v-167h-692z" />
<glyph unicode="&#x2011;" horiz-adv-x="966" d="M137 406v167h692v-167h-692z" />
<glyph unicode="&#x2012;" horiz-adv-x="966" d="M137 406v167h692v-167h-692z" />
<glyph unicode="&#x2013;" horiz-adv-x="1122" d="M137 406v167h848v-167h-848z" />
<glyph unicode="&#x2014;" horiz-adv-x="1589" d="M137 406v167h1315v-167h-1315z" />
<glyph unicode="&#x2018;" horiz-adv-x="374" d="M74 1124v226l200 153l72 -28l-90 -146h61v-205h-243z" />
<glyph unicode="&#x2019;" horiz-adv-x="374" d="M111 1153l90 145h-62v205h244v-225l-201 -154z" />
<glyph unicode="&#x201a;" horiz-adv-x="448" d="M117 -145l90 145h-62v205h244v-225l-201 -154z" />
<glyph unicode="&#x201c;" horiz-adv-x="681" d="M74 1124v226l200 153l72 -28l-90 -146h61v-205h-243zM399 1124v226l201 153l72 -28l-90 -146h61v-205h-244z" />
<glyph unicode="&#x201d;" horiz-adv-x="706" d="M90 1153l90 145h-61v205h243v-225l-200 -154zM416 1153l90 145h-62v205h244v-225l-201 -154z" />
<glyph unicode="&#x201e;" horiz-adv-x="778" d="M117 -145l90 145h-62v205h244v-225l-201 -154zM451 -145l90 145h-62v205h244v-225l-201 -154z" />
<glyph unicode="&#x2022;" horiz-adv-x="538" d="M131 498q0 57 43 103t102 46q57 0 103.5 -46t46.5 -103q0 -59 -46 -102.5t-104 -43.5q-59 0 -102 43.5t-43 102.5z" />
<glyph unicode="&#x2026;" horiz-adv-x="1214" d="M125 121q0 57 43 103t102 46q57 0 103.5 -46t46.5 -103q0 -59 -46 -102.5t-104 -43.5q-59 0 -102 43.5t-43 102.5zM514 121q0 57 43 103t102 46q57 0 103.5 -46t46.5 -103q0 -59 -46 -102.5t-104 -43.5q-59 0 -102 43.5t-43 102.5zM901 121q0 57 43 103t103 46 q57 0 103 -46t46 -103q0 -59 -46 -102.5t-103 -43.5q-59 0 -102.5 43.5t-43.5 102.5z" />
<glyph unicode="&#x202f;" horiz-adv-x="346" />
<glyph unicode="&#x2039;" horiz-adv-x="620" d="M76 489v11l274 360h230l-297 -362v-11l297 -362h-232z" />
<glyph unicode="&#x203a;" horiz-adv-x="620" d="M109 125l297 362v11l-297 362h229l274 -360v-11l-272 -364h-231z" />
<glyph unicode="&#x205f;" horiz-adv-x="434" />
<glyph unicode="&#x20ac;" horiz-adv-x="1273" d="M84 461v168h156v33q0 51 2 75h-158v168h184q51 207 189.5 332t347.5 125q205 0 350 -88l-65 -227q-119 115 -295 114q-225 0 -285 -256h432v-168h-453v-55v-53h453v-168h-434q59 -285 274 -285q211 0 336 131l62 -207q-184 -125 -398 -125q-215 0 -348 133.5t-176 352.5 h-174z" />
<glyph unicode="&#x2122;" horiz-adv-x="1421" d="M135 1206v131h443v-131h-152v-450h-139v450h-152zM645 756v581h184l146 -411l143 411h182v-581h-139v336l-123 -336h-133l-121 338v-338h-139z" />
<glyph unicode="&#xe000;" horiz-adv-x="940" d="M0 940h940v-940h-940v940z" />
<glyph unicode="&#xfb01;" horiz-adv-x="1079" d="M53 805v117l117 18q0 371 86 485q74 100 254 101q178 0 330 -103l-92 -166q-8 4 -36 23.5t-40.5 27t-38 20.5t-44 19.5t-44 11.5t-51.5 5q-53 0 -76 -59.5t-23 -227.5v-135h180v-137h-180v-805h-225v805h-117zM694 0v942h226v-942h-226z" />
<glyph unicode="&#xfb02;" horiz-adv-x="1103" d="M53 805v117l117 18q0 371 86 485q74 100 254 101q164 0 330 -60l88 50v-1516h-226v1319q-123 45 -208 45q-53 0 -76 -59.5t-23 -227.5v-135h180v-137h-180v-805h-225v805h-117z" />
<glyph unicode="&#xfb03;" horiz-adv-x="1691" d="M1356 1245q0 57 43 103.5t102 46.5q57 0 103.5 -46t46.5 -104q0 -59 -46 -102t-104 -43q-59 0 -102 43t-43 102zM1389 0v942h225v-942h-225zM665 805v117l117 18q0 371 86 485q74 100 254 101q123 0 195 -43l-52 -174q-90 55 -159 55q-53 0 -76 -59.5t-23 -227.5v-135 h180v-137h-180v-805h-225v805h-117zM53 805v117l117 18q0 371 86 485q74 100 254 101q123 0 195 -43l-52 -174q-90 55 -159 55q-53 0 -76 -59.5t-23 -227.5v-135h180v-137h-180v-805h-225v805h-117z" />
<glyph unicode="&#xfb04;" horiz-adv-x="1716" d="M1399 0v1516h225v-1516h-225zM665 805v117l117 18q0 371 86 485q74 100 254 101q123 0 195 -43l-52 -174q-90 55 -159 55q-53 0 -76 -59.5t-23 -227.5v-135h180v-137h-180v-805h-225v805h-117zM53 805v117l117 18q0 371 86 485q74 100 254 101q123 0 195 -43l-52 -174 q-90 55 -159 55q-53 0 -76 -59.5t-23 -227.5v-135h180v-137h-180v-805h-225v805h-117z" />
</font>
</defs>
</svg>
